<svg id="Icon_Nav_WorkList" data-name="Icon/Nav/WorkList" xmlns="http://www.w3.org/2000/svg" width="20" height="20" viewBox="0 0 20 20">
  <g id="Group">
    <path id="Path" d="M0,0H20V20H0Z" fill="none"/>
    <path id="Path-2" data-name="Path" d="M3.333,0H1.667A1.667,1.667,0,0,0,0,1.667v10a1.667,1.667,0,0,0,1.667,1.667H10a1.667,1.667,0,0,0,1.667-1.667v-10A1.667,1.667,0,0,0,10,0H8.333" transform="translate(4.167 4.167)" fill="none" stroke="#2c3e50" stroke-linecap="round" stroke-linejoin="round" stroke-miterlimit="10" stroke-width="1"/>
    <rect id="Rectangle" width="5" height="3.333" rx="1.667" transform="translate(7.5 2.5)" fill="none" stroke="#2c3e50" stroke-linecap="round" stroke-linejoin="round" stroke-miterlimit="10" stroke-width="1"/>
    <path id="Path-3" data-name="Path" d="M.412.417H.421" transform="translate(7.088 9.583)" fill="none" stroke="#2c3e50" stroke-linecap="round" stroke-linejoin="round" stroke-miterlimit="10" stroke-width="1"/>
    <path id="Path-4" data-name="Path" d="M0,.417H1.667" transform="translate(10.833 9.583)" fill="none" stroke="#2c3e50" stroke-linecap="round" stroke-linejoin="round" stroke-miterlimit="10" stroke-width="1"/>
    <path id="Path-5" data-name="Path" d="M.412.417H.421" transform="translate(7.088 12.917)" fill="none" stroke="#2c3e50" stroke-linecap="round" stroke-linejoin="round" stroke-miterlimit="10" stroke-width="1"/>
    <path id="Path-6" data-name="Path" d="M0,.417H1.667" transform="translate(10.833 12.917)" fill="none" stroke="#2c3e50" stroke-linecap="round" stroke-linejoin="round" stroke-miterlimit="10" stroke-width="1"/>
  </g>
</svg>
