<svg id="Icon_Nav_DocTypes" data-name="Icon/Nav/DocTypes" xmlns="http://www.w3.org/2000/svg" width="20" height="20" viewBox="0 0 20 20">
  <g id="Group">
    <path id="Path" d="M0,0H20V20H0Z" fill="none"/>
    <path id="Path-2" data-name="Path" d="M0,0V3.333a.833.833,0,0,0,.833.833H4.167" transform="translate(11.667 2.5)" fill="none" stroke="#929292" stroke-linecap="round" stroke-linejoin="round" stroke-miterlimit="10" stroke-width="0.833"/>
    <path id="Path-3" data-name="Path" d="M10,15H1.667A1.667,1.667,0,0,1,0,13.333V1.667A1.667,1.667,0,0,1,1.667,0H7.5l4.167,4.167v9.167A1.667,1.667,0,0,1,10,15Z" transform="translate(4.167 2.5)" fill="none" stroke="#929292" stroke-linecap="round" stroke-linejoin="round" stroke-miterlimit="10" stroke-width="0.833"/>
    <path id="Path-4" data-name="Path" d="M0,0H.833V3.333h.833" transform="translate(9.167 11.667)" fill="none" stroke="#929292" stroke-linecap="round" stroke-linejoin="round" stroke-miterlimit="10" stroke-width="0.833"/>
    <path id="Path-5" data-name="Path" d="M.412.417H.421" transform="translate(9.587 8.75)" fill="none" stroke="#929292" stroke-linecap="round" stroke-linejoin="round" stroke-miterlimit="10" stroke-width="0.833"/>
  </g>
</svg>
