<svg id="Group" xmlns="http://www.w3.org/2000/svg" width="20" height="20" viewBox="0 0 20 20">
  <path id="Path" d="M0,0H20V20H0Z" fill="none"/>
  <path id="Path-2" data-name="Path" d="M6.1,1.1A1.436,1.436,0,0,1,8.9,1.1a1.437,1.437,0,0,0,2.144.888,1.437,1.437,0,0,1,1.975,1.975A1.437,1.437,0,0,0,13.9,6.1a1.436,1.436,0,0,1,0,2.792,1.437,1.437,0,0,0-.888,2.144,1.437,1.437,0,0,1-1.975,1.975A1.437,1.437,0,0,0,8.9,13.9a1.436,1.436,0,0,1-2.792,0,1.437,1.437,0,0,0-2.144-.888,1.437,1.437,0,0,1-1.975-1.975A1.437,1.437,0,0,0,1.1,8.9,1.436,1.436,0,0,1,1.1,6.1,1.437,1.437,0,0,0,1.986,3.96,1.437,1.437,0,0,1,3.961,1.985,1.435,1.435,0,0,0,6.1,1.1Z" transform="translate(2.5 2.5)" fill="none" stroke="#194D8D" stroke-linecap="round" stroke-linejoin="round" stroke-miterlimit="10" stroke-width="1.25"/>
  <circle id="Oval" cx="2.5" cy="2.5" r="2.5" transform="translate(7.5 7.5)" fill="#194D8D" stroke="#929292" stroke-linecap="round" stroke-linejoin="round" stroke-miterlimit="10" stroke-width="1.25"/>
</svg>
